<?xml version="1.0" encoding="iso-8859-1"?>
<!-- Uploaded to: SVG Repo, www.svgrepo.com, Generator: SVG Repo Mixer Tools -->
<!DOCTYPE svg PUBLIC "-//W3C//DTD SVG 1.1//EN" "http://www.w3.org/Graphics/SVG/1.1/DTD/svg11.dtd">
<svg fill="#000000" height="800px" width="800px" version="1.1" id="Capa_1" xmlns="http://www.w3.org/2000/svg" xmlns:xlink="http://www.w3.org/1999/xlink" 
	 viewBox="0 0 467.244 467.244" xml:space="preserve">
<g>
	<path d="M396.097,335.414L302.062,32.17C296.128,13.04,278.433,0,258.404,0h-49.603c-20.099,0-37.839,13.128-43.713,32.35
		L71.662,338.053c-4.058,13.28-1.579,27.698,6.682,38.859c8.26,11.162,21.323,17.747,35.209,17.747
		c19.68,0,36.943-13.124,42.207-32.085l19.215-69.213h113.011l20.685,68.758c5.81,19.317,23.598,32.54,43.772,32.54
		c14.522,0,28.181-6.901,36.795-18.593C397.852,364.375,400.398,349.285,396.097,335.414z M187.859,226.61l23.406-83.748
		c6.442-22.84,12.309-52.686,18.175-76.116h1.132c5.865,23.43,12.933,52.704,19.93,76.116l24.603,83.748H187.859z"/>
	<path d="M371.507,413.906H95.74c-14.725,0-26.672,11.937-26.672,26.668c0,14.734,11.947,26.67,26.672,26.67h275.768
		c14.723,0,26.669-11.937,26.669-26.67C398.176,425.843,386.23,413.906,371.507,413.906z"/>
</g>
</svg>